<?xml version="1.0" standalone="no"?><!DOCTYPE svg PUBLIC "-//W3C//DTD SVG 1.1//EN" "http://www.w3.org/Graphics/SVG/1.1/DTD/svg11.dtd"><svg t="1722934463888" class="icon" viewBox="0 0 1024 1024" version="1.1" xmlns="http://www.w3.org/2000/svg" p-id="6307" xmlns:xlink="http://www.w3.org/1999/xlink" width="200" height="200"><path d="M709.589333 210.005333l0.426667-0.213333h0.170667L512 96 313.898667 209.792h-0.213334l0.725334 0.298667L151.466667 304v416L512 928l360.533333-208v-416L709.546667 210.005333z m-226.901333 633.6L339.626667 761.002667v-139.605334L210.005333 547.84v-174.933333l272.682667 157.354666v313.386667zM238.208 321.493333L372.906667 243.712l138.88 79.701333 139.093333-79.914666 135.253333 77.994666-273.92 157.994667-274.005333-157.994667z m575.786667 226.816l-128.810667 73.088v139.093334l-143.872 82.986666v-313.088l272.682667-157.269333v175.189333z" p-id="6308"></path></svg>
